<svg xmlns="http://www.w3.org/2000/svg" shape-rendering="geometricPrecision" text-rendering="geometricPrecision" image-rendering="optimizeQuality" fill-rule="evenodd" clip-rule="evenodd" viewBox="0 0 463 512.112"><path fill-rule="nonzero" d="M342.144 249.587v195.637c0 10.199-4.103 18.788-10.41 24.992a35.727 35.727 0 01-24.996 10.258v-.064c-8.574-.005-17.27-3.07-24.282-9.827l-88.175-71.64-105.44 106.502c-8.799 8.853-23.116 8.893-31.969.094-8.853-8.799-8.892-23.117-.093-31.969l256.794-259.39 28.571-28.962v.108l82.221-83.054c8.799-8.853 23.116-8.892 31.969-.093 8.853 8.799 8.892 23.116.093 31.969L342.144 249.587zm-124.59 125.848l86.011 69.882c.573.446 1.126.935 1.65 1.469.49.495 1.043.73 1.523.73v-.064c.372 0 .744-.074 1.067-.205.357-.143.652-.324.838-.505.288-.284.479-.798.479-1.518V282.941l-91.568 92.494zM62.988 394.629c-15.659-2.771-29.727-10.365-40.558-21.192C8.593 359.615 0 340.573 0 319.65V180.253c0-20.927 8.593-39.965 22.43-53.787 13.804-13.794 32.856-22.353 53.768-22.353H189.35l92.391-93.522C288.92 3.286 297.909 0 306.738 0c4.617 0 9.205.921 13.455 2.654a35.814 35.814 0 0111.541 7.599c6.297 6.204 10.41 14.778 10.41 24.992v77.741c-5.151 4.26-9.533 8.309-12.226 11.046l-20.796 21.079V35.245c0-.72-.191-1.234-.479-1.518-.182-.181-.476-.353-.838-.5a2.859 2.859 0 00-1.067-.205c-.529 0-1.077.21-1.523.661l-96.46 97.64c-3.031 3.555-7.541 5.812-12.574 5.812H76.198c-11.898 0-22.719 4.852-30.548 12.677-7.791 7.78-12.629 18.557-12.629 30.441V319.65c0 11.889 4.838 22.661 12.629 30.441 7.829 7.825 18.65 12.677 30.548 12.677h18.22l-31.43 31.861z"/></svg>